<?xml version="1.0" encoding="utf-8"?>
<svg viewBox="6.8748 90.2552 484.461 484.4507" xmlns="http://www.w3.org/2000/svg">
  <path fill="#de4c36" d="M 482.2 310.896 L 270.677 99.391 C 258.493 87.21 238.739 87.21 226.559 99.391 L 182.635 143.314 L 238.355 199.033 C 251.713 194.49 266.498 197.933 276.474 207.914 C 286.506 217.958 289.921 232.852 285.274 246.266 L 338.973 299.965 C 351.964 295.486 366.951 298.384 377.329 308.778 C 391.832 323.27 391.832 346.78 377.329 361.272 C 357.134 381.493 322.625 372.277 315.203 344.674 C 313.088 336.795 313.626 328.437 316.736 320.892 L 266.666 270.822 L 266.658 402.602 C 270.285 404.399 273.605 406.773 276.479 409.628 C 290.979 424.126 290.979 447.634 276.479 462.136 C 261.974 476.638 238.463 476.638 223.98 462.136 C 205.223 443.392 211.598 411.593 236.13 401.53 L 236.13 268.512 C 231.578 266.651 227.445 263.896 223.98 260.408 C 212.994 249.44 210.352 233.316 215.976 219.824 L 161.059 164.893 L 16.018 309.924 C 3.827 322.111 3.827 341.873 16.018 354.06 L 227.54 565.571 C 239.728 577.751 259.481 577.751 271.669 565.571 L 482.2 355.043 C 494.381 342.851 494.381 323.092 482.2 310.902" style=""/>
</svg>