<?xml version="1.0" encoding="utf-8"?>
<svg viewBox="5.338 301.976 485.098 63.062" xmlns="http://www.w3.org/2000/svg">
  <path fill="#ea1b22" d="M 214.758 343.003 L 246.812 343.003 L 229.864 315.734 L 198.756 365.037 L 184.599 365.037 L 222.436 305.813 C 224.081 303.421 226.822 301.976 229.864 301.976 C 232.804 301.976 235.546 303.371 237.142 305.714 L 275.129 365.037 L 260.971 365.037 L 254.293 354.02 L 221.838 354.02 L 214.758 343.003 Z M 361.819 354.019 L 361.819 302.573 L 349.806 302.573 L 349.806 359.055 C 349.806 360.6 350.404 362.096 351.55 363.243 C 352.697 364.389 354.241 365.037 355.937 365.037 L 410.724 365.037 L 417.803 354.02 L 361.819 354.019 Z M 163.062 344.797 C 174.728 344.797 184.2 335.376 184.2 323.711 C 184.2 312.045 174.728 302.572 163.062 302.572 L 110.504 302.572 L 110.504 365.038 L 122.514 365.038 L 122.514 313.591 L 162.266 313.591 C 167.849 313.591 172.334 318.129 172.334 323.712 C 172.334 329.294 167.849 333.831 162.266 333.831 L 128.397 333.782 L 164.259 365.038 L 181.708 365.038 L 157.579 344.798 L 163.062 344.797 Z M 36.576 365.037 C 19.333 365.038 5.338 351.079 5.338 333.831 C 5.338 316.582 19.333 302.574 36.576 302.574 L 72.883 302.574 C 90.13 302.574 104.114 316.582 104.114 333.831 C 104.114 351.079 90.13 365.037 72.882 365.037 L 36.576 365.037 Z M 72.075 354.02 C 83.246 354.02 92.295 344.997 92.295 333.83 C 92.295 322.664 83.246 313.591 72.075 313.591 L 37.379 313.591 C 26.212 313.591 17.158 322.664 17.158 333.831 C 17.158 344.997 26.212 354.02 37.378 354.02 L 72.075 354.02 Z M 300.203 365.037 C 282.956 365.037 268.948 351.079 268.948 333.831 C 268.948 316.582 282.956 302.574 300.203 302.574 L 343.326 302.574 L 336.296 313.591 L 301.001 313.591 C 289.834 313.591 280.763 322.664 280.763 333.831 C 280.763 344.997 289.834 354.02 301.001 354.02 L 344.322 354.02 L 337.242 365.037 L 300.203 365.037 Z M 447.117 354.02 C 437.893 354.02 430.067 347.839 427.675 339.314 L 479.021 339.314 L 486.1 328.297 L 427.675 328.297 C 430.067 319.822 437.893 313.591 447.117 313.591 L 482.361 313.591 L 489.489 302.572 L 446.318 302.572 C 429.069 302.572 415.06 316.581 415.06 333.829 C 415.06 351.078 429.069 365.036 446.318 365.036 L 483.358 365.036 L 490.436 354.02 L 447.117 354.02 Z" style=""/>
</svg>