<?xml version="1.0" encoding="utf-8"?>
<svg viewBox="0 0 500 670" xmlns="http://www.w3.org/2000/svg">
  <path id="path222" style="fill: rgb(255, 255, 255);" d="M 96.878 419.1 C 107.111 419.484 114.523 422.538 119.203 428.14 C 123.89 432.826 124.836 437.655 122.023 442.811 C 119.203 447.028 113.665 449.144 105.235 449.144 C 97.283 448.668 90.329 446.568 84.236 442.811 C 78.706 439.083 77.519 434.161 80.814 428.14 C 84.472 422.048 89.869 419.1 96.878 419.1 Z"/>
  <path fill="#264de4" d="M 248.4 612.252 L 59.338 559.767 L 17.206 87.213 L 480.16 87.213 L 437.982 559.694 L 248.4 612.252 Z" style=""/>
  <path fill="#2965f1" d="M 401.876 529.608 L 437.917 125.85 L 248.685 125.85 L 248.685 572.078 L 401.876 529.608 Z" style=""/>
  <path fill="#ebebeb" d="M 113.791 301.114 L 118.987 359.071 L 248.683 359.071 L 248.683 301.114 L 113.791 301.114 Z M 103.354 183.809 L 108.623 241.766 L 248.683 241.766 L 248.683 183.809 L 103.354 183.809 Z M 248.683 451.635 L 248.429 451.702 L 183.881 434.273 L 179.756 388.05 L 121.576 388.05 L 129.695 479.051 L 248.414 512.007 L 248.683 511.934 L 248.683 451.635 Z" style=""/>
  <path fill="#fff" d="M 383.203 301.114 L 393.665 183.809 L 248.481 183.809 L 248.481 241.766 L 330.149 241.766 L 324.876 301.114 L 248.481 301.114 L 248.481 359.071 L 319.849 359.071 L 313.122 434.237 L 248.481 451.684 L 248.481 511.98 L 367.297 479.051 L 368.168 469.259 L 381.787 316.677 L 383.203 301.114 Z" style=""/>
</svg>