<?xml version="1.0" encoding="utf-8"?>
<svg viewBox="0 0 500 670" xmlns="http://www.w3.org/2000/svg">
  <path id="path222" style="fill: rgb(255, 255, 255);" d="M 96.878 426.786 C 107.111 427.17 114.523 430.224 119.203 435.826 C 123.89 440.512 124.836 445.341 122.023 450.497 C 119.203 454.714 113.665 456.83 105.235 456.83 C 97.283 456.354 90.329 454.254 84.236 450.497 C 78.706 446.769 77.519 441.847 80.814 435.826 C 84.472 429.734 89.869 426.786 96.878 426.786 Z"/>
  <path fill="#e44d26" d="M 485.656 67.997 L 442.861 547.394 L 250.501 600.722 L 58.674 547.468 L 15.925 67.997 L 485.656 67.997 Z" style=""/>
  <path fill="#f16529" d="M 250.791 559.959 L 406.227 516.868 L 442.795 107.2 L 250.793 107.2 L 250.791 559.959 Z" style=""/>
  <path fill="#ebebeb" d="M 167.601 224.812 L 250.791 224.812 L 250.791 166.007 L 103.335 166.007 L 104.741 181.783 L 119.195 343.835 L 250.791 343.835 L 250.791 285.029 L 172.975 285.029 L 167.601 224.812 Z M 180.854 373.238 L 121.823 373.238 L 130.061 465.572 L 250.518 499.009 L 250.791 498.936 L 250.791 437.753 L 250.533 437.822 L 185.04 420.138 L 180.854 373.238 Z" style=""/>
  <path fill="#fff" d="M 250.586 343.835 L 322.998 343.835 L 316.174 420.101 L 250.586 437.803 L 250.586 498.982 L 371.141 465.572 L 372.024 455.636 L 385.844 300.82 L 387.28 285.029 L 250.586 285.029 L 250.586 343.835 Z M 250.586 224.669 L 250.586 224.812 L 392.63 224.812 L 393.809 211.595 L 396.489 181.783 L 397.895 166.007 L 250.586 166.007 L 250.586 224.67 L 250.586 224.669 Z" style=""/>
</svg>